<svg xmlns="http://www.w3.org/2000/svg" viewBox="0 0 64 64"><defs><linearGradient id="g11" x1="0" y1="0" x2="0" y2="1"><stop offset="0" stop-color="#f6dfa0"></stop><stop offset=".5" stop-color="#d4a24c"></stop><stop offset="1" stop-color="#8a5a1c"></stop></linearGradient><radialGradient id="f11" cx=".5" cy=".4" r=".7"><stop offset="0" stop-color="#1c2740"></stop><stop offset="1" stop-color="#0a0f1c"></stop></radialGradient></defs><circle cx="32" cy="32" r="29" fill="url(#f11)" stroke="url(#g11)" stroke-width="2"></circle><circle cx="32" cy="32" r="25" fill="none" stroke="#8a5a1c" stroke-width=".75"></circle><path transform="rotate(0 32 32)" d="M32 4l2 3h-4z" fill="url(#g11)"></path><path transform="rotate(90 32 32)" d="M32 4l2 3h-4z" fill="url(#g11)"></path><path transform="rotate(180 32 32)" d="M32 4l2 3h-4z" fill="url(#g11)"></path><path transform="rotate(270 32 32)" d="M32 4l2 3h-4z" fill="url(#g11)"></path><g transform="translate(17 17) scale(1.25)" fill="none" stroke="url(#g11)" stroke-width="1.6" stroke-linecap="round" stroke-linejoin="round"><circle cx="12" cy="7" r="3"></circle><circle cx="5" cy="9" r="2.2"></circle><circle cx="19" cy="9" r="2.2"></circle><path d="M6.5 20a5.5 5.5 0 0 1 11 0M1.5 19a3.5 3.5 0 0 1 4.5-3.4M22.5 19a3.5 3.5 0 0 0-4.5-3.4"></path></g></svg>